<?xml version="1.0" encoding="UTF-8" standalone="no"?>
<!-- Created with Inkscape (http://www.inkscape.org/) -->

<svg
   width="74.907799mm"
   height="23.73362mm"
   viewBox="0 0 74.907799 23.73362"
   version="1.1"
   id="svg1"
   xmlns="http://www.w3.org/2000/svg"
   xmlns:svg="http://www.w3.org/2000/svg">
  <defs
     id="defs1" />
  <g
     id="layer1"
     transform="translate(-32.657281,-85.893187)">
    <path
       d="m 32.657281,102.82239 1.029394,-1.78594 6.412012,-12.079881 0.682129,-1.351855 q 0.297656,-0.595313 0.830957,-1.711524 2.182812,0.02481 3.187402,0.02481 1.748731,0 3.237012,-0.02481 l 1.810742,5.171778 3.683496,9.946682 0.719336,1.81074 q -2.145606,-0.0248 -2.604492,-0.0248 -1.041797,0 -3.063379,0.0248 -0.545703,-2.04639 -1.575098,-4.81211 h -6.250781 q -1.079004,2.18281 -2.232422,4.81211 -2.306836,-0.0248 -2.827734,-0.0248 -0.942578,0 -3.038574,0.0248 z m 9.599414,-8.421192 h 3.857129 q -1.438672,-4.378027 -1.575098,-4.824512 -0.818555,1.823145 -1.389063,2.988965 z m 14.138672,9.959082 q 1.599902,0.5457 2.815332,0.75654 1.21543,0.22324 2.120801,0.22324 0.657324,0 1.190625,-0.14882 0.533301,-0.13643 0.855761,-0.34727 0.322461,-0.21084 0.545704,-0.5333 0.235644,-0.32246 0.359668,-0.71934 0.124023,-0.39687 0.173632,-0.91777 0.04961,-0.5209 0.08682,-1.43867 -0.483692,0.43408 -0.84336,0.69453 -0.347265,0.26045 -0.868164,0.5085 -0.520898,0.23564 -1.141015,0.37207 -0.607715,0.12402 -1.289844,0.12402 -1.575098,0 -2.840137,-0.73174 -1.265039,-0.73174 -1.885156,-2.04639 -0.620117,-1.314643 -0.620117,-2.840131 0,-1.79834 0.669726,-3.249414 0.669727,-1.451074 1.909961,-2.455664 1.252637,-1.00459 2.740918,-1.389063 1.488282,-0.384472 3.373438,-0.384472 1.079004,0 2.443261,0.136425 1.376661,0.124024 3.770313,0.558106 l -0.297656,4.092773 -0.26045,4.489649 q -0.0248,0.483692 -0.0248,0.793752 l -0.09922,4.030759 q -0.02481,0.76894 -0.186035,1.46348 -0.136426,0.63252 -0.458887,1.17822 -0.322461,0.5457 -0.79375,0.95498 -0.520898,0.44648 -1.16582,0.70693 -0.657324,0.27285 -1.550293,0.44649 -0.967383,0.17363 -2.021582,0.17363 -0.595313,0 -1.463477,-0.062 -0.868164,-0.0496 -1.785937,-0.16123 -0.905371,-0.11162 -1.575098,-0.23565 -0.657324,-0.12402 -1.674316,-0.35967 l -0.08682,-1.6371 q -0.0124,-0.47129 -0.124023,-2.04639 z m 8.52041,-10.728027 q -0.768945,-0.148828 -1.37666,-0.148828 -1.116211,0 -1.934766,0.434082 -0.806152,0.421679 -1.252636,1.277441 -0.446485,0.843359 -0.446485,1.761133 0,0.669726 0.235645,1.240234 0.235644,0.570508 0.781347,0.905371 0.545704,0.322465 1.153418,0.322465 0.892969,0 1.5875,-0.644926 0.694532,-0.644922 0.954981,-1.761133 0.260449,-1.11621 0.297656,-3.385839 z"
       id="text2"
       style="font-size:25.4px;font-family:'Eras Bold ITC';-inkscape-font-specification:'Eras Bold ITC';fill:#18bd1c;stroke-width:0.264583"
       aria-label="Ag" />
    <g
       id="g3"
       transform="translate(0,0.38223938)">
      <path
         d="m 70.522554,102.44015 0.310059,-2.505276 0.768945,-8.694043 0.384473,-5.729883 q 2.282031,0.02481 3.584277,0.02481 1.079004,0 3.299023,-0.02481 0.161231,1.066602 0.272852,1.624707 0.111621,0.545704 0.545703,2.158008 0.446484,1.599903 0.706933,2.778125 0.272852,1.16582 0.806153,4.005957 0.545703,-1.947168 0.992187,-3.348633 0.446485,-1.401464 1.116211,-3.187402 0.669727,-1.785937 0.84336,-2.33164 0.186035,-0.558106 0.496093,-1.699122 1.860352,0.02481 3.646289,0.02481 1.21543,0 3.373438,-0.02481 -0.235645,4.17959 -0.310059,7.180957 -0.16123,5.878711 -0.16123,8.086325 0,0.45889 0.0248,1.66192 -1.637109,-0.0248 -2.294433,-0.0248 -0.954981,0 -2.344043,0.0248 0.09922,-1.11621 0.248047,-5.308206 0.148828,-4.204394 0.148828,-5.370214 0,-0.508496 -0.02481,-1.413868 l -1.624707,5.047754 -2.33164,7.044534 q -1.612305,-0.0248 -2.22002,-0.0248 -0.768945,0 -2.356445,0.0248 L 76.897359,95.618858 76.00439,91.984972 q -0.04961,-0.21084 -0.111621,-0.520899 -0.06201,-0.310058 -0.198438,-1.091406 l -0.310058,3.435449 -0.409278,7.044534 -0.03721,1.5875 q -1.711523,-0.0248 -2.182812,-0.0248 -0.644922,0 -2.232422,0.0248 z m 35.805566,-3.74551 q -0.16123,0.74414 -0.62012,3.59668 -1.43867,0.28525 -2.41845,0.37207 -0.97979,0.0992 -1.98438,0.0992 -1.475879,0 -2.716113,-0.21084 -1.240234,-0.19844 -2.145605,-0.71934 -0.892969,-0.5209 -1.500684,-1.28984 -0.607715,-0.781349 -0.930176,-1.84795 -0.310058,-1.066602 -0.310058,-2.195215 0,-1.5875 0.632519,-3.100586 0.63252,-1.525488 1.624707,-2.38125 1.00459,-0.855762 2.306836,-1.21543 1.302246,-0.359668 2.666504,-0.359668 1.41387,0 2.69131,0.334864 1.28984,0.322461 2.18281,1.141015 0.89297,0.818555 1.26504,1.847949 0.38447,1.029395 0.38447,2.22002 0,0.706934 -0.16123,1.575098 l -8.694041,0.0124 q -0.0124,0.198437 -0.0124,0.359668 0,1.339453 0.954981,1.971972 0.95498,0.63252 2.33164,0.63252 0.81855,0 1.86035,-0.186035 1.0542,-0.198438 2.59209,-0.657324 z m -7.627442,-4.01836 h 4.092772 q 0.0124,-0.21084 0.0124,-0.359668 0,-0.644921 -0.23564,-1.103808 -0.22324,-0.458887 -0.65732,-0.669727 -0.42168,-0.21084 -0.95499,-0.21084 -0.37207,0 -0.71933,0.124024 -0.347267,0.111621 -0.632521,0.347265 -0.272851,0.223243 -0.458886,0.520899 -0.186036,0.297656 -0.272852,0.58291 -0.08682,0.272852 -0.173633,0.768945 z"
         id="text3"
         style="font-size:25.4px;font-family:'Eras Bold ITC';-inkscape-font-specification:'Eras Bold ITC';stroke-width:0.264583"
         aria-label="Me" />
    </g>
    <path
       d="m 69.895976,107.40926 0.257349,-0.44648 1.603003,-3.01997 0.170532,-0.33797 q 0.07441,-0.14882 0.207739,-0.42788 0.545703,0.006 0.796851,0.006 0.437182,0 0.809253,-0.006 l 0.452685,1.29295 0.920874,2.48667 0.179834,0.45268 q -0.536401,-0.006 -0.651123,-0.006 -0.260449,0 -0.765844,0.006 -0.136426,-0.51159 -0.393775,-1.20302 h -1.562695 q -0.269751,0.5457 -0.558106,1.20302 -0.576709,-0.006 -0.706933,-0.006 -0.235645,0 -0.759644,0.006 z m 2.399854,-2.10529 h 0.964282 q -0.359668,-1.09451 -0.393774,-1.20613 -0.204639,0.45578 -0.347266,0.74724 z m 3.534668,2.48977 q 0.399975,0.13642 0.703833,0.18913 0.303857,0.0558 0.5302,0.0558 0.164331,0 0.297656,-0.0372 0.133325,-0.0341 0.213941,-0.0868 0.08062,-0.0527 0.136425,-0.13333 0.05891,-0.0806 0.08992,-0.17983 0.03101,-0.0992 0.04341,-0.22944 0.0124,-0.13023 0.0217,-0.35967 -0.120923,0.10852 -0.21084,0.17363 -0.08682,0.0651 -0.217041,0.12713 -0.130225,0.0589 -0.285254,0.093 -0.151929,0.031 -0.322461,0.031 -0.393774,0 -0.710034,-0.18294 -0.31626,-0.18293 -0.471289,-0.51159 -0.155029,-0.32866 -0.155029,-0.71004 0,-0.44958 0.167431,-0.81235 0.167432,-0.36277 0.47749,-0.61392 0.31316,-0.25114 0.68523,-0.34726 0.37207,-0.0961 0.843359,-0.0961 0.269751,0 0.610816,0.0341 0.344165,0.031 0.942578,0.13952 l -0.07441,1.0232 -0.06511,1.12241 q -0.0062,0.12092 -0.0062,0.19844 l -0.0248,1.00769 q -0.0062,0.19223 -0.04651,0.36587 -0.03411,0.15813 -0.114722,0.29455 -0.08062,0.13643 -0.198437,0.23875 -0.130225,0.11162 -0.291455,0.17673 -0.164332,0.0682 -0.387574,0.11162 -0.241845,0.0434 -0.505395,0.0434 -0.148828,0 -0.365869,-0.0155 -0.217041,-0.0124 -0.446485,-0.0403 -0.226342,-0.0279 -0.393774,-0.0589 -0.164331,-0.031 -0.418579,-0.0899 l -0.0217,-0.40928 q -0.0031,-0.11782 -0.03101,-0.51159 z m 2.130102,-2.68201 q -0.192236,-0.0372 -0.344165,-0.0372 -0.279052,0 -0.483691,0.10852 -0.201538,0.10542 -0.313159,0.31936 -0.111621,0.21084 -0.111621,0.44029 0,0.16743 0.05891,0.31006 0.05891,0.14262 0.195337,0.22634 0.136425,0.0806 0.288354,0.0806 0.223242,0 0.396875,-0.16123 0.173633,-0.16123 0.238745,-0.44028 0.06511,-0.27905 0.07441,-0.84646 z m 1.804541,2.29753 0.09612,-1.37666 0.03101,-0.79065 q 0.0031,-0.21394 0.0031,-0.43718 0,-0.22634 -0.0062,-0.5612 0.375171,0.006 0.595313,0.006 0.257348,0 0.592212,-0.006 l -0.0124,0.35036 q 0.120923,-0.13642 0.198438,-0.20154 0.07751,-0.0682 0.176733,-0.12092 0.09922,-0.0558 0.20774,-0.0806 0.10852,-0.0279 0.226342,-0.0279 0.111621,0 0.248047,0.031 0.0031,0.33796 0.0155,0.5581 l 0.0217,0.47749 q -0.170532,-0.0496 -0.31936,-0.0496 -0.186035,0 -0.322461,0.0558 -0.133325,0.0527 -0.238745,0.16433 -0.10232,0.10852 -0.164331,0.27286 -0.06201,0.16433 -0.08682,0.52089 -0.0248,0.35657 -0.0248,0.81546 0,0.16123 0.0124,0.39997 -0.300757,-0.006 -0.604614,-0.006 -0.300757,0 -0.644922,0.006 z m 4.576465,-3.24631 q 0.384472,0 0.737939,0.11782 0.356568,0.11782 0.601514,0.34107 0.244946,0.22014 0.359668,0.51779 0.117822,0.29456 0.117822,0.63562 0,0.33177 -0.10542,0.63252 -0.102319,0.29766 -0.350366,0.56121 -0.248047,0.26045 -0.63252,0.39067 -0.381372,0.13023 -0.809253,0.13023 -0.393774,0 -0.756542,-0.11472 -0.362769,-0.11472 -0.607715,-0.33487 -0.241846,-0.22014 -0.365869,-0.5271 -0.120923,-0.30695 -0.120923,-0.64492 0,-0.33796 0.117822,-0.64492 0.120923,-0.30696 0.378271,-0.5519 0.26045,-0.24495 0.641822,-0.37517 0.381372,-0.13333 0.79375,-0.13333 z m -0.0217,0.91157 q -0.198438,0 -0.353467,0.10232 -0.155029,0.10232 -0.235645,0.30076 -0.07751,0.19534 -0.07751,0.42788 0,0.34106 0.170532,0.524 0.170532,0.17983 0.427881,0.17983 0.195337,0 0.350366,-0.10232 0.155029,-0.10542 0.232544,-0.30695 0.08062,-0.20464 0.08062,-0.43719 0,-0.19223 -0.06201,-0.34726 -0.06201,-0.15503 -0.204638,-0.24805 -0.139527,-0.093 -0.328662,-0.093 z"
       id="text4"
       style="font-size:6.35px;font-family:'Eras Bold ITC';-inkscape-font-specification:'Eras Bold ITC';fill:#18bd1c;stroke-width:0.264583"
       aria-label="Agro" />
    <path
       d="m 86.815962,107.40926 0.07752,-0.62631 0.192236,-2.17352 0.09612,-1.43247 q 0.570508,0.006 0.89607,0.006 0.269751,0 0.824756,-0.006 0.04031,0.26665 0.06821,0.40618 0.02791,0.13643 0.136426,0.5395 0.111621,0.39998 0.176734,0.69453 0.06821,0.29146 0.201538,1.00149 0.136425,-0.48679 0.248047,-0.83716 0.111621,-0.35036 0.279052,-0.79685 0.167432,-0.44648 0.21084,-0.58291 0.04651,-0.13952 0.124024,-0.42478 0.465087,0.006 0.911572,0.006 0.303857,0 0.843359,-0.006 -0.05891,1.0449 -0.07751,1.79524 -0.04031,1.46968 -0.04031,2.02159 0,0.11472 0.0062,0.41547 -0.409277,-0.006 -0.573608,-0.006 -0.238745,0 -0.586011,0.006 0.02481,-0.27905 0.06201,-1.32705 0.03721,-1.0511 0.03721,-1.34255 0,-0.12712 -0.0062,-0.35347 l -0.406177,1.26194 -0.58291,1.76113 q -0.403077,-0.006 -0.555005,-0.006 -0.192237,0 -0.589112,0.006 l -0.381372,-1.70532 -0.223242,-0.90847 q -0.0124,-0.0527 -0.0279,-0.13022 -0.0155,-0.0775 -0.04961,-0.27286 l -0.07752,0.85887 -0.102319,1.76113 -0.0093,0.39687 q -0.427881,-0.006 -0.545703,-0.006 -0.161231,0 -0.558106,0.006 z m 8.951392,-0.93637 q -0.04031,0.18603 -0.15503,0.89917 -0.359668,0.0713 -0.604614,0.093 -0.244946,0.0248 -0.496094,0.0248 -0.368969,0 -0.679028,-0.0527 -0.310059,-0.0496 -0.536401,-0.17984 -0.223243,-0.13022 -0.375171,-0.32246 -0.151929,-0.19533 -0.232544,-0.46198 -0.07752,-0.26665 -0.07752,-0.54881 0,-0.39687 0.15813,-0.77514 0.15813,-0.38138 0.406177,-0.59532 0.251147,-0.21394 0.576709,-0.30385 0.325561,-0.0899 0.666626,-0.0899 0.353467,0 0.672827,0.0837 0.322461,0.0806 0.545703,0.28525 0.223242,0.20464 0.31626,0.46199 0.09612,0.25735 0.09612,0.555 0,0.17673 -0.04031,0.39378 l -2.17351,0.003 q -0.0031,0.0496 -0.0031,0.0899 0,0.33487 0.238745,0.493 0.238745,0.15813 0.58291,0.15813 0.204639,0 0.465088,-0.0465 0.26355,-0.0496 0.648023,-0.16433 z m -1.906861,-1.00459 h 1.023194 q 0.0031,-0.0527 0.0031,-0.0899 0,-0.16123 -0.05891,-0.27595 -0.05581,-0.11472 -0.164331,-0.16743 -0.10542,-0.0527 -0.238745,-0.0527 -0.09302,0 -0.179834,0.031 -0.08682,0.0279 -0.15813,0.0868 -0.06821,0.0558 -0.114722,0.13022 -0.04651,0.0744 -0.06821,0.14573 -0.0217,0.0682 -0.04341,0.19224 z m 4.902026,1.02939 q -0.05581,0.26045 -0.09612,0.5085 l -0.06821,0.37827 q -0.306958,0.0682 -0.480591,0.0868 -0.170532,0.0186 -0.331762,0.0186 -0.26355,0 -0.468189,-0.0465 -0.204638,-0.0434 -0.341064,-0.16123 -0.136426,-0.12092 -0.186035,-0.27595 -0.04961,-0.15503 -0.04961,-0.32866 0,-0.031 0.0031,-0.10853 0.0031,-0.0806 0.0217,-0.35346 l 0.06821,-1.0728 h -0.483692 q 0.0155,-0.21395 0.02791,-0.56431 l 0.0093,-0.28836 h 0.514698 q 0.0186,-0.14262 0.04651,-0.62321 l 0.530201,-0.10852 q 0.145727,-0.0279 0.620117,-0.14263 -0.0217,0.40618 -0.03101,0.87436 h 0.706934 q -0.02481,0.64493 -0.02481,0.85267 h -0.713135 l -0.03721,0.77514 q -0.0062,0.17363 -0.0062,0.22324 0,0.14883 0.03101,0.24805 0.03411,0.0992 0.114721,0.14263 0.08372,0.0434 0.182935,0.0434 0.07441,0 0.155029,-0.009 0.08062,-0.0124 0.285254,-0.0682 z m 0.393775,0.91157 0.09612,-1.37666 0.03101,-0.79065 q 0.0031,-0.21394 0.0031,-0.43718 0,-0.22634 -0.0062,-0.5612 0.375171,0.006 0.595312,0.006 0.257354,0 0.592214,-0.006 l -0.0124,0.35036 q 0.12092,-0.13642 0.19844,-0.20154 0.0775,-0.0682 0.17673,-0.12092 0.0992,-0.0558 0.20774,-0.0806 0.10852,-0.0279 0.22634,-0.0279 0.11162,0 0.24805,0.031 0.003,0.33796 0.0155,0.5581 l 0.0217,0.47749 q -0.17054,-0.0496 -0.31936,-0.0496 -0.18604,0 -0.32246,0.0558 -0.13333,0.0527 -0.23875,0.16433 -0.10232,0.10852 -0.16433,0.27286 -0.062,0.16433 -0.0868,0.52089 -0.0248,0.35657 -0.0248,0.81546 0,0.16123 0.0124,0.39997 -0.30076,-0.006 -0.604618,-0.006 -0.300757,0 -0.644922,0.006 z m 2.908346,-3.55947 q 0.0186,-0.36897 0.0186,-0.58291 0,-0.062 -0.003,-0.16743 0.37517,0.006 0.62942,0.006 0.35036,0 0.61391,-0.006 -0.009,0.0961 -0.0124,0.16123 l -0.0186,0.38447 q -0.006,0.0868 -0.006,0.20464 -0.30695,-0.006 -0.58911,-0.006 -0.29145,0 -0.63252,0.006 z m -0.19533,3.55947 q 0.0434,-0.37827 0.0651,-0.62321 0.0217,-0.24495 0.0403,-0.62632 0.0217,-0.38137 0.0372,-0.84336 0.0155,-0.46199 0.0248,-1.0728 0.40307,0.006 0.64492,0.006 0.22014,0 0.63252,-0.006 -0.0527,0.58601 -0.0775,1.02939 -0.0217,0.44338 -0.0279,0.93948 -0.0124,0.88056 -0.0124,1.19682 -0.36897,-0.006 -0.63562,-0.006 -0.26355,0 -0.69143,0.006 z m 1.66501,0 0.70693,-0.93947 0.524,-0.71934 -0.97358,-1.50688 q 0.45269,0.006 0.77825,0.006 0.40927,0 0.67282,-0.006 l 0.32867,0.71003 q 0.031,0.0651 0.0899,0.20154 0.23875,-0.40928 0.56431,-0.91157 0.27595,0.006 0.66042,0.006 0.35657,0 0.67903,-0.006 l -0.49609,0.65112 q -0.14573,0.19223 -0.62322,0.84336 0.28525,0.49299 1.0418,1.67121 -0.35037,-0.006 -0.69143,-0.006 -0.41548,0 -0.74414,0.006 -0.20154,-0.43408 -0.31006,-0.64182 -0.10542,-0.20774 -0.17984,-0.38137 l -0.0992,0.17053 q -0.0465,0.0775 -0.14263,0.22945 l -0.39378,0.62321 q -0.33486,-0.006 -0.65112,-0.006 -0.36587,0 -0.74104,0.006 z"
       id="text5"
       style="font-size:6.35px;font-family:'Eras Bold ITC';-inkscape-font-specification:'Eras Bold ITC';stroke-width:0.264583"
       aria-label="Metrix" />
    <path
       style="fill:#18bd1c;fill-opacity:1;stroke-width:0.08098"
       d="m 61.001399,99.930891 c 0.64099,-2.84867 3.570729,-6.15351 0.64099,-2.84867 -2.929748,3.304829 -2.929748,3.304829 -2.929748,3.304829 z"
       id="path5" />
  </g>
</svg>
