<?xml version="1.0" standalone="no"?>
<!DOCTYPE svg PUBLIC "-//W3C//DTD SVG 20010904//EN"
 "http://www.w3.org/TR/2001/REC-SVG-20010904/DTD/svg10.dtd">
<svg version="1.0" xmlns="http://www.w3.org/2000/svg"
 width="500.000000pt" height="500.000000pt" viewBox="0 0 500.000000 500.000000"
 preserveAspectRatio="xMidYMid meet">

<g transform="translate(0.000000,500.000000) scale(0.100000,-0.100000)"
fill="#000000" stroke="none">
<path d="M2995 3034 c-73 -125 -233 -319 -394 -479 -137 -136 -141 -141 -141
-182 0 -42 1 -43 33 -43 17 0 74 9 124 19 251 52 423 237 448 480 7 75 -3 291
-14 291 -3 -1 -28 -39 -56 -86z"/>
<path d="M1665 2102 c-6 -4 -18 -25 -27 -47 -8 -22 -34 -87 -57 -144 -33 -82
-39 -106 -29 -112 22 -14 28 -10 44 26 l14 35 74 0 74 0 12 -35 c8 -24 18 -35
31 -35 10 0 19 7 19 15 0 8 -25 76 -56 152 -50 123 -66 153 -84 153 -3 0 -10
-4 -15 -8z m59 -170 c7 -21 5 -22 -43 -22 -28 0 -51 2 -51 5 0 2 12 30 26 62
l26 58 18 -40 c9 -22 20 -50 24 -63z"/>
<path d="M2194 2099 c-77 -23 -128 -113 -106 -188 18 -60 47 -89 106 -106 46
-14 57 -14 104 0 l52 16 0 74 0 75 -56 0 c-47 0 -55 -3 -52 -17 2 -11 14 -19
30 -21 21 -3 27 -9 30 -38 5 -46 -11 -58 -68 -51 -68 7 -99 42 -99 108 0 45 4
54 33 80 35 31 78 38 128 19 28 -11 43 -1 44 26 0 23 -97 38 -146 23z"/>
<path d="M3250 1950 l0 -160 100 0 100 0 0 25 c0 24 -2 25 -75 25 l-75 0 0 45
0 45 65 0 c58 0 65 2 65 20 0 18 -7 20 -65 20 l-65 0 0 45 0 45 75 0 c68 0 75
2 75 20 0 11 -6 20 -12 21 -7 1 -52 3 -100 5 l-88 4 0 -160z"/>
<path d="M2632 1948 c3 -150 3 -153 26 -156 22 -3 22 -1 22 98 0 56 3 99 8 96
4 -2 27 -45 52 -95 25 -50 51 -91 58 -91 6 0 33 43 60 96 l47 95 5 -98 c5 -92
6 -98 28 -101 l22 -3 0 155 0 156 -25 0 c-23 0 -32 -12 -78 -110 -29 -60 -54
-110 -57 -110 -3 0 -30 49 -60 108 -48 93 -58 107 -83 110 l-28 3 3 -153z"/>
</g>
</svg>
